<?xml version="1.0" encoding="UTF-8" standalone="no"?>
<!-- Created with Inkscape (http://www.inkscape.org/) -->

<svg
   width="250px"
   height="250px"
   viewBox="0 0 250 250"
   version="1.1"
   id="SVGRoot"
   sodipodi:docname="blender-2.svg"
   inkscape:version="1.2 (dc2aeda, 2022-05-15)"
   xmlns:inkscape="http://www.inkscape.org/namespaces/inkscape"
   xmlns:sodipodi="http://sodipodi.sourceforge.net/DTD/sodipodi-0.dtd"
   xmlns="http://www.w3.org/2000/svg"
   xmlns:svg="http://www.w3.org/2000/svg">
  <sodipodi:namedview
     id="namedview784"
     pagecolor="#ffffff"
     bordercolor="#000000"
     borderopacity="0.25"
     inkscape:showpageshadow="2"
     inkscape:pageopacity="0.0"
     inkscape:pagecheckerboard="0"
     inkscape:deskcolor="#d1d1d1"
     inkscape:document-units="px"
     showgrid="false"
     inkscape:zoom="1.440123"
     inkscape:cx="69.091321"
     inkscape:cy="53.120463"
     inkscape:window-width="1920"
     inkscape:window-height="1012"
     inkscape:window-x="0"
     inkscape:window-y="0"
     inkscape:window-maximized="1"
     inkscape:current-layer="layer2" />
  <defs
     id="defs779" />
  <g
     inkscape:label="Layer 1"
     inkscape:groupmode="layer"
     id="layer1">
    <g
       inkscape:groupmode="layer"
       id="layer2"
       inkscape:label="Layer 2"
       style="display:inline">
      <path
         id="path241-3"
         style="display:inline;fill:#000000;stroke:none;stroke-width:5.09007"
         d="m 138.33266,131.68888 a 33.671726,33.671726 0 0 0 -33.67188,33.67188 33.671726,33.671726 0 0 0 33.67188,33.66992 33.671726,33.671726 0 0 0 33.67187,-33.66992 33.671726,33.671726 0 0 0 -33.67187,-33.67188 z m 0,7.10352 a 26.566565,26.566565 0 0 1 26.56641,26.56836 26.566565,26.566565 0 0 1 -26.56641,26.5664 26.566565,26.566565 0 0 1 -26.56641,-26.5664 26.566565,26.566565 0 0 1 26.56641,-26.56836 z" />
      <path
         id="path241-3-6"
         style="display:inline;fill:#000000;stroke:none;stroke-width:10.1801"
         d="m 138.33267,98.017989 a 67.343452,67.343452 0 0 0 -67.343764,67.343741 67.343452,67.343452 0 0 0 67.343764,67.33984 67.343452,67.343452 0 0 0 67.34374,-67.33984 67.343452,67.343452 0 0 0 -67.34374,-67.343741 z m 0,14.207021 a 53.13313,53.13313 0 0 1 53.13282,53.13672 53.13313,53.13313 0 0 1 -53.13282,53.1328 53.13313,53.13313 0 0 1 -53.132824,-53.1328 53.13313,53.13313 0 0 1 53.132824,-53.13672 z" />
      <rect
         style="fill:#000000;stroke:none;stroke-width:2.93821"
         id="rect1024"
         width="70.824814"
         height="23.002907"
         x="97.983788"
         y="4.2182817"
         ry="11.501453"
         transform="rotate(30)" />
      <rect
         style="display:inline;fill:#000000;stroke:none;stroke-width:2.93821"
         id="rect1024-7"
         width="70.824814"
         height="23.002907"
         x="15.5972"
         y="120.18742"
         ry="11.501453" />
      <rect
         style="display:inline;fill:#000000;stroke:none;stroke-width:2.93821"
         id="rect1024-7-5"
         width="70.824814"
         height="23.002907"
         x="-128.65511"
         y="153.87971"
         ry="11.501453"
         transform="rotate(-45)" />
      <path
         style="fill:#000000;stroke:none;stroke-width:4.016"
         d="m 133.05871,81.692333 40.76757,26.438307 -12.16375,0.87487 -32.23386,-10.396334 3.81219,-16.811679"
         id="path1089" />
      <path
         style="fill:#000000;stroke:none;stroke-width:4.016"
         d="M 69.471538,120.18742 H 94.00502 l -10.107619,9.62516"
         id="path1188" />
      <path
         style="fill:#000000;stroke:none;stroke-width:4.016"
         d="m 59.816786,157.80211 28.494876,-37.61469 -4.310341,25.76813 -13.012415,19.40618"
         id="path1222" />
      <path
         id="rect1376-7"
         style="fill:#000000;fill-opacity:1;stroke:#000000;stroke-width:3.53;stroke-dasharray:none;stroke-opacity:1"
         d="m 226.47308,48.569542 c -0.57665,-2.152045 -1.97765,-4.08395 -4.06856,-5.291134 L 176.41975,16.730355 c -4.1818,-2.414365 -9.49178,-0.991558 -11.90616,3.190241 l -25.88053,44.826425 c -0.20406,0.353444 -0.37115,0.716448 -0.52109,1.083552 l 0.3136,0.181048 c 0.10812,-0.238673 0.22806,-0.474421 0.36195,-0.70631 l 26.28681,-45.530094 c 2.18973,-3.792734 7.005,-5.082976 10.79771,-2.89324 L 222.5471,43.82857 c 1.89638,1.094866 3.1675,2.845727 3.69062,4.797584 0.52312,1.951846 0.2979,4.105278 -0.79697,6.001647 l -26.28681,45.530089 c -0.13388,0.23189 -0.27806,0.45362 -0.43071,0.66661 l 0.31359,0.18105 c 0.24304,-0.31335 0.47378,-0.6396 0.67783,-0.99304 l 25.88024,-44.827887 c 1.20718,-2.090888 1.45495,-4.462975 0.87831,-6.615009 z" />
      <path
         id="rect1376-7-56"
         style="fill:#000000;fill-opacity:1;stroke:#000000;stroke-width:3.53;stroke-dasharray:none;stroke-opacity:1"
         d="m 128.63267,69.037215 c -2.80055,-1.616906 -6.35671,-0.664037 -7.97361,2.136522 l -0.88389,1.53094 c -1.61691,2.800564 -0.66403,6.356721 2.13652,7.973622 l 72.36609,41.780581 c 2.80056,1.61692 6.35671,0.66404 7.97362,-2.13653 l 0.88388,-1.53094 c 1.61693,-2.80056 0.66405,-6.35672 -2.13652,-7.97362 z m -0.36659,0.101536 72.82785,42.047179 c 2.54001,1.46647 3.40459,4.69188 1.93812,7.23188 l -1.15595,2.00217 c -1.46646,2.54001 -4.69205,3.40395 -7.23205,1.93747 L 121.8162,80.310263 c -2.53999,-1.466454 -3.40418,-4.691625 -1.93771,-7.23164 l 1.15596,-2.002156 c 1.46646,-2.540007 4.69164,-3.404178 7.23163,-1.937716 z"
         sodipodi:nodetypes="sscsccscsssssccsss" />
      <path
         id="rect1376-7-5"
         style="fill:#000000;fill-opacity:1;stroke:#000000;stroke-width:3.53;stroke-dasharray:none;stroke-opacity:1"
         d="m 200.4762,93.347928 c -0.57664,-2.152029 -1.97914,-4.083537 -4.07005,-5.290722 L 150.42289,61.508755 c -4.18181,-2.414377 -9.49179,-0.991568 -11.90615,3.19024 l -4.48437,7.767129 0.35608,0.206852 4.68891,-8.119423 c 2.18974,-3.792733 7.00499,-5.082978 10.79773,-2.893241 l 46.67354,26.946985 c 3.79274,2.189744 5.0849,7.006107 2.89519,10.798818 l -4.68891,8.119425 0.35757,0.20645 4.48435,-7.767143 c 1.20719,-2.090898 1.45605,-4.464884 0.87941,-6.616928 z" />
    </g>
  </g>
</svg>
