<?xml version="1.0" encoding="UTF-8" standalone="no"?>
<!-- Created with Inkscape (http://www.inkscape.org/) -->

<svg
   width="250px"
   height="250px"
   viewBox="0 0 250 250"
   version="1.1"
   id="SVGRoot"
   sodipodi:docname="discord.svg"
   inkscape:version="1.2 (dc2aeda, 2022-05-15)"
   xmlns:inkscape="http://www.inkscape.org/namespaces/inkscape"
   xmlns:sodipodi="http://sodipodi.sourceforge.net/DTD/sodipodi-0.dtd"
   xmlns="http://www.w3.org/2000/svg"
   xmlns:svg="http://www.w3.org/2000/svg">
  <sodipodi:namedview
     id="namedview784"
     pagecolor="#ffffff"
     bordercolor="#000000"
     borderopacity="0.25"
     inkscape:showpageshadow="2"
     inkscape:pageopacity="0.0"
     inkscape:pagecheckerboard="0"
     inkscape:deskcolor="#d1d1d1"
     inkscape:document-units="px"
     showgrid="false"
     inkscape:zoom="1.440123"
     inkscape:cx="145.47369"
     inkscape:cy="55.203618"
     inkscape:window-width="1920"
     inkscape:window-height="1012"
     inkscape:window-x="0"
     inkscape:window-y="0"
     inkscape:window-maximized="1"
     inkscape:current-layer="layer2" />
  <defs
     id="defs779" />
  <g
     inkscape:label="Layer 1"
     inkscape:groupmode="layer"
     id="layer1">
    <g
       inkscape:groupmode="layer"
       id="layer2"
       inkscape:label="Layer 2"
       style="display:inline">
      <path
         id="path241-3"
         style="display:inline;fill:#000000;stroke:none;stroke-width:3.80464"
         d="m 78.28338,148.27945 a 25.168373,25.168373 0 0 0 -9.212305,34.3808 25.168373,25.168373 0 0 0 34.380065,9.21103 25.168373,25.168373 0 0 0 9.21304,-34.37952 25.168373,25.168373 0 0 0 -34.3808,-9.21231 z m 2.65481,4.59827 a 19.857527,19.857527 0 0 1 27.12646,7.26958 19.857527,19.857527 0 0 1 -7.26832,27.12572 19.857527,19.857527 0 0 1 -27.125728,-7.26831 19.857527,19.857527 0 0 1 7.267588,-27.12699 z" />
      <path
         id="path241-3-6"
         style="display:inline;fill:#000000;stroke:none;stroke-width:7.60925"
         d="m 65.699492,126.48356 a 50.336746,50.336746 0 0 0 -18.424609,68.76158 50.336746,50.336746 0 0 0 68.760117,18.42207 50.336746,50.336746 0 0 0 21.30013,-24.55966 l -26.60974,15.36314 A 39.715055,39.715055 0 0 1 56.473935,189.93406 39.715055,39.715055 0 0 1 71.009107,135.68008 l 26.760199,-15.45 a 50.336746,50.336746 0 0 0 -32.069814,6.25348 z" />
      <path
         id="path241-3-67"
         style="display:inline;fill:#000000;stroke:none;stroke-width:3.80464"
         d="m 156.27053,103.25355 a 25.168373,25.168373 0 0 0 -9.2123,34.3808 25.168373,25.168373 0 0 0 34.38006,9.21103 25.168373,25.168373 0 0 0 9.21302,-34.37951 25.168373,25.168373 0 0 0 -34.38078,-9.21232 z m 2.65481,4.59827 a 19.857527,19.857527 0 0 1 27.12646,7.26958 19.857527,19.857527 0 0 1 -7.26832,27.12572 19.857527,19.857527 0 0 1 -27.12573,-7.26831 19.857527,19.857527 0 0 1 7.26759,-27.12699 z" />
      <path
         id="path241-3-6-5"
         style="display:inline;fill:#000000;stroke:none;stroke-width:7.60925"
         d="M 143.68663,81.457676 A 50.336746,50.336746 0 0 0 122.38778,106.0166 l 26.60846,-15.362401 a 39.715055,39.715055 0 0 1 54.25292,14.539151 39.715055,39.715055 0 0 1 -14.53664,54.25145 l -26.60973,15.36313 a 50.336746,50.336746 0 0 0 31.91934,-6.16661 50.336746,50.336746 0 0 0 18.42608,-68.759037 50.336746,50.336746 0 0 0 -68.76158,-18.424607 z" />
      <rect
         style="display:inline;fill:#000000;stroke:none;stroke-width:1.3932"
         id="rect1024-7"
         width="33.582695"
         height="10.907187"
         x="133.37007"
         y="180.44638"
         ry="5.4535937"
         transform="rotate(15)" />
      <rect
         style="display:inline;fill:#000000;stroke:none;stroke-width:0.979589"
         id="rect1024-7-5"
         width="52.938934"
         height="3.4206693"
         x="9.105648"
         y="149.58629"
         ry="0"
         transform="rotate(-30)" />
      <path
         style="fill:#000000;stroke-width:2.92706;stroke-linejoin:round"
         d="m 113.14954,222.77614 6.43866,-14.92057 -12.04158,4.44532 0.31639,7.69423"
         id="path1152" />
      <rect
         style="display:inline;fill:#000000;stroke:none;stroke-width:1.3932"
         id="rect1024-7-6"
         width="33.582695"
         height="10.907187"
         x="82.899162"
         y="233.76929"
         ry="5.4535937"
         transform="matrix(-0.25881905,0.96592583,0.96592583,0.25881905,0,0)" />
      <rect
         style="display:inline;fill:#000000;stroke:none;stroke-width:0.664936"
         id="rect1024-7-6-9"
         width="16.028131"
         height="5.2057128"
         x="148.71501"
         y="157.90799"
         ry="2.6028564"
         transform="matrix(-0.25881905,0.96592583,0.96592583,0.25881905,0,0)" />
      <rect
         style="display:inline;fill:#000000;stroke:none;stroke-width:0.664936"
         id="rect1024-7-6-9-1"
         width="16.028131"
         height="5.2057128"
         x="140.94017"
         y="165.68283"
         ry="2.6028564"
         transform="matrix(-0.25881905,0.96592583,0.96592583,0.25881905,0,0)" />
      <rect
         style="display:inline;fill:#000000;stroke:none;stroke-width:0.664936"
         id="rect1024-7-6-9-2"
         width="16.028131"
         height="5.2057128"
         x="107.22886"
         y="199.39415"
         ry="2.6028564"
         transform="matrix(-0.25881905,0.96592583,0.96592583,0.25881905,0,0)" />
      <rect
         style="display:inline;fill:#000000;stroke:none;stroke-width:0.664936"
         id="rect1024-7-6-9-1-7"
         width="16.028131"
         height="5.2057128"
         x="99.454018"
         y="207.16899"
         ry="2.6028564"
         transform="matrix(-0.25881905,0.96592583,0.96592583,0.25881905,0,0)" />
      <path
         style="display:inline;fill:#000000;stroke-width:2.92706;stroke-linejoin:round"
         d="m 200.92384,174.42826 -16.14093,-1.88424 9.87056,-8.20564 6.5052,4.12111"
         id="path1152-2" />
      <g
         id="g374"
         transform="matrix(0.83852655,0.22468251,-0.22468251,0.83852655,17.654864,-57.51713)">
        <path
           id="rect1376-7"
           style="fill:#000000;fill-opacity:1;stroke:#000000;stroke-width:4.416;stroke-dasharray:none;stroke-opacity:1"
           d="m 110.51172,60.461576 c -2.78716,10e-7 -5.57523,1.067417 -7.71094,3.203125 L 55.832031,110.63541 c -4.27142,4.27141 -4.27142,11.14849 0,15.41992 l 45.787109,45.78711 c 0.36102,0.36102 0.74553,0.68048 1.14063,0.98047 l 0.32031,-0.32032 c -0.25344,-0.20789 -0.49947,-0.42915 -0.73633,-0.66601 L 55.837891,125.33072 c -3.874014,-3.87402 -3.874014,-10.11037 0,-13.98437 L 103.51172,63.670561 c 1.93701,-1.937009 4.46425,-2.906094 6.99219,-2.90625 2.52792,-1.57e-4 5.05713,0.969242 6.99414,2.90625 l 46.50586,46.505859 c 0.23686,0.23686 0.45811,0.48288 0.66601,0.73633 l 0.32031,-0.32031 c -0.29999,-0.3951 -0.61945,-0.77961 -0.98046,-1.14063 L 118.2207,63.664701 c -2.1357,-2.135707 -4.92183,-3.203125 -7.70898,-3.203125 z" />
        <path
           id="rect1376-7-56"
           style="fill:#000000;fill-opacity:1;stroke:#000000;stroke-width:4.416;stroke-dasharray:none;stroke-opacity:1"
           d="m 103.56533,185.31564 c -2.86058,2.86057 -2.86058,7.46623 0,10.32681 l 1.56375,1.56375 c 2.86058,2.86058 7.46624,2.86058 10.32682,0 l 73.91698,-73.91698 c 2.86059,-2.86058 2.86059,-7.46624 0,-10.32682 l -1.56375,-1.56375 c -2.86058,-2.86059 -7.46625,-2.86059 -10.32682,0 z m 0.004,0.47585 74.38864,-74.38864 c 2.59444,-2.59445 6.77185,-2.59485 9.36628,-4.2e-4 l 2.04508,2.04508 c 2.59444,2.59443 2.59402,6.77184 -4.2e-4,9.36628 l -74.38865,74.38863 c -2.59442,2.59444 -6.77141,2.59444 -9.36586,0 l -2.04507,-2.04507 c -2.59444,-2.59443 -2.59443,-6.77143 0,-9.36586 z"
           sodipodi:nodetypes="sscsccscsssssccsss" />
        <path
           id="rect1376-7-5"
           style="fill:#000000;fill-opacity:1;stroke:#000000;stroke-width:4.416;stroke-dasharray:none;stroke-opacity:1"
           d="m 156.20312,106.37369 c -2.78714,0 -5.57522,1.06937 -7.71093,3.20508 l -46.96875,46.96875 c -4.27143,4.27141 -4.27143,11.14849 0,15.41992 l 7.93359,7.93359 0.36524,-0.36328 -8.29297,-8.29492 c -3.874022,-3.87402 -3.874022,-10.11036 0,-13.98438 l 47.67382,-47.67382 c 3.87403,-3.87403 10.11233,-3.87597 13.98633,-0.002 l 8.29297,8.29492 0.36524,-0.36523 -7.9336,-7.93359 c -2.13571,-2.13571 -4.92378,-3.20508 -7.71094,-3.20508 z" />
      </g>
    </g>
  </g>
</svg>
