<?xml version="1.0" encoding="UTF-8" standalone="no"?>
<!-- Created with Inkscape (http://www.inkscape.org/) -->

<svg
   width="250px"
   height="250px"
   viewBox="0 0 250 250"
   version="1.1"
   id="SVGRoot"
   sodipodi:docname="firefox.svg"
   inkscape:version="1.2 (dc2aeda, 2022-05-15)"
   xmlns:inkscape="http://www.inkscape.org/namespaces/inkscape"
   xmlns:sodipodi="http://sodipodi.sourceforge.net/DTD/sodipodi-0.dtd"
   xmlns="http://www.w3.org/2000/svg"
   xmlns:svg="http://www.w3.org/2000/svg">
  <sodipodi:namedview
     id="namedview784"
     pagecolor="#ffffff"
     bordercolor="#000000"
     borderopacity="0.25"
     inkscape:showpageshadow="2"
     inkscape:pageopacity="0.0"
     inkscape:pagecheckerboard="0"
     inkscape:deskcolor="#d1d1d1"
     inkscape:document-units="px"
     showgrid="false"
     inkscape:zoom="2.0366415"
     inkscape:cx="85.680274"
     inkscape:cy="79.297216"
     inkscape:window-width="1920"
     inkscape:window-height="1012"
     inkscape:window-x="0"
     inkscape:window-y="0"
     inkscape:window-maximized="1"
     inkscape:current-layer="layer2" />
  <defs
     id="defs779" />
  <g
     inkscape:label="Layer 1"
     inkscape:groupmode="layer"
     id="layer1">
    <path
       id="path899"
       style="fill:#000000;stroke:none;stroke-width:9.916"
       d="m 160.96484,28.851222 0.13672,0.378906 c 3.43849,26.708043 1.62591,35.1648 3.41449,37.485995 35.94617,15.788895 59.53904,19.022742 59.61872,58.283537 -3.7e-4,54.75047 -44.3843,99.1344 -99.13477,99.13477 -54.750469,-3.7e-4 -99.134402,-44.3843 -99.13477,-99.13477 0.02066,-17.72222 4.791711,-35.114897 13.81641,-50.367188 L 37.07813,72.984035 34.485352,72.226562 C 25.031061,88.080904 22.371362,106.54043 22.34375,124.99966 22.343562,181.69522 68.304441,227.6561 125,227.65591 181.69556,227.6561 227.65644,181.69522 227.65625,124.99966 227.65567,82.177198 201.07332,43.853655 160.96484,28.851222 Z"
       sodipodi:nodetypes="ccccccccccccc" />
    <g
       id="path1108-5"
       style="stroke:none;fill:#ff5555;fill-opacity:1" />
    <g
       inkscape:groupmode="layer"
       id="layer2"
       inkscape:label="Layer 2"
       style="display:inline">
      <path
         id="path1236"
         style="color:#000000;fill:#000000;fill-opacity:1;stroke:none"
         d="m 65.298828,-0.69921875 0.583984,4.05664065 c 0,0 1.748496,12.1854831 2.996094,22.5351561 0.02581,0.214073 0.02543,0.295244 0.05078,0.507813 -1.634175,-2.048225 -3.377219,-3.687945 -5.035157,-4.837891 -3.320194,-2.302888 -6.253825,-3.036619 -6.927734,-3.185547 -0.136871,-0.04324 -9.328999,-2.944863 -16.572266,-4.273437 -1.824371,-0.334631 -3.522404,-0.574097 -5.029297,-0.626954 -1.506891,-0.05286 -2.836599,-0.290708 -4.478515,1.064454 -0.820958,0.67758 -1.376505,2.147686 -1.212891,3.208984 0.163614,1.061298 0.632438,1.750841 1.160156,2.417969 1.055438,1.334254 2.608766,2.631719 5,4.339843 3.927803,2.805738 5.858723,6.813294 6.615235,11.6875 0.756512,4.874208 0.206573,10.514576 -0.935547,15.826172 -2.284241,10.623195 -6.816406,19.779297 -6.816406,19.779297 l -0.423828,0.851563 5.408202,1.980128 0.738282,-2.679347 c 1.216664,-2.605722 4.272081,-9.423147 6.291016,-18.8125 1.227634,-5.709292 1.898201,-11.909736 0.990234,-17.759766 -0.907967,-5.850028 -3.527025,-11.448773 -8.777344,-15.199218 -0.71498,-0.510731 -0.749784,-0.654996 -1.27539,-1.078125 0.626143,0.08675 1.082571,0.09929 1.787109,0.228515 6.71096,1.230939 15.984375,4.13086 15.984375,4.13086 l 0.160156,0.05078 0.166016,0.0293 c 0,0 2.218043,0.376469 5.11914,2.388672 2.901098,2.012202 6.275792,5.537178 8.105469,12.144531 0.261624,0.944777 0.479909,1.649045 0.707031,2.236328 0.113562,0.293642 0.218674,0.552637 0.41211,0.880859 0.193435,0.328224 0.22234,1.040185 1.857422,1.419922 0.81754,0.189869 1.966986,-0.190628 2.470703,-0.65625 0.503715,-0.46562 0.633016,-0.835745 0.732422,-1.097656 0.19881,-0.523821 0.20399,-0.787115 0.230468,-1.072266 0.05296,-0.570299 0.04372,-1.125172 0.01758,-1.818359 C 75.293855,35.196 74.787661,30.477643 74.158203,25.255859 73.160531,16.979497 72.269665,10.841566 71.769531,7.3027344 c 1.616979,0.8468296 3.531073,1.9709529 5.746094,3.7089846 5.463557,4.287016 11.909981,11.560548 15.740234,23.804687 2.007708,6.418029 3.354789,10.324197 4.296875,12.679688 0.471044,1.177745 0.809415,1.940627 1.230469,2.617187 0.210528,0.338281 0.355918,0.676354 1.054688,1.15625 0.349389,0.239949 0.955829,0.556118 1.794919,0.498047 0.8391,-0.05807 1.61646,-0.593641 1.9668,-1.027344 0.15978,-0.197804 0.0611,-0.218934 0.15039,-0.375 l 48.40039,39.070313 -4.65625,5.130859 -79.294921,-5.060547 -2.822266,4.541016 1.066406,0.673828 83.265621,5.312497 10.16407,-11.197262 -58.78321,-47.449219 C 100.30055,39.159016 99.649476,37.44818 98.330078,33.230469 94.168454,19.92704 86.974799,11.677628 80.796875,6.8300781 74.618951,1.9825286 69.242188,0.42382812 69.242188,0.42382812 Z"
         sodipodi:nodetypes="ccscscssssssssccccssscccccsssssssscscssssssscccccccccsscc" />
      <path
         id="rect1376-7"
         style="fill:#000000;fill-opacity:1;stroke:#000000;stroke-width:3.46918;stroke-dasharray:none;stroke-opacity:1"
         d="m 143.87072,107.92086 c -1.44854,-1.64194 -3.52635,-2.72967 -5.89449,-2.87786 l -52.081238,-3.25827 c -4.73624,-0.29642 -8.78759,3.27771 -9.084,8.01397 l -3.1773,50.76985 c -0.02505,0.40032 -0.01343,0.79287 0.0152,1.18153 l 0.355178,0.0222 c -0.0093,-0.25733 -0.0067,-0.51726 0.0097,-0.77991 l 3.227152,-51.56683 c 0.26885,-4.29561 3.94272,-7.53674 8.23833,-7.26791 l 52.863038,3.30721 c 2.1478,0.13441 4.03215,1.11958 5.34603,2.60873 1.3139,1.48913 2.05734,3.48288 1.92289,5.63071 l -3.22719,51.56686 c -0.0158,0.2626 -0.0464,0.52081 -0.0877,0.77502 l 0.35516,0.0222 c 0.0768,-0.38206 0.13741,-0.77008 0.16228,-1.17039 l 3.17632,-50.77099 c 0.14827,-2.36812 -0.67097,-4.56421 -2.11949,-6.20614 z" />
      <path
         id="rect1376-7-56"
         style="display:inline;fill:#000000;fill-opacity:1;stroke:#000000;stroke-width:3.46918;stroke-dasharray:none;stroke-opacity:1"
         d="m 74.588785,169.21055 c 0.139465,0.0976 0.278935,0.19488 0.41837,0.29276 l 73.907255,4.62504 c 2.87679,0.18002 5.04775,2.6392 4.86772,5.51597 l -0.14195,2.2682 c -0.18006,2.87678 -2.64253,5.04969 -5.51928,4.86964 l -54.769878,-3.42938 c 0.11708,0.0966 0.23753,0.19296 0.35427,0.2897 l 54.136918,3.38964 c 3.17187,0.19851 5.88679,-2.19824 6.08529,-5.37008 l 0.10838,-1.73236 c 0.1985,-3.17189 -2.19629,-5.88343 -5.36814,-6.08194 z" />
      <path
         id="rect1376-7-5"
         style="fill:#000000;fill-opacity:1;stroke:#000000;stroke-width:3.46918;stroke-dasharray:none;stroke-opacity:1"
         d="m 140.57005,158.69929 c -1.44855,-1.64191 -3.5275,-2.72866 -5.89564,-2.87684 l -52.080088,-3.25928 c -4.73625,-0.29642 -8.787605,3.27771 -9.084014,8.01398 l -0.550538,8.79696 0.403839,0.0264 0.576628,-9.19646 c 0.268831,-4.2956 3.942705,-7.53672 8.238315,-7.26789 l 52.861898,3.30821 c 4.2956,0.26883 7.5389,3.94285 7.27002,8.23847 l -0.57665,9.19648 0.40503,0.0254 0.55053,-8.79694 c 0.14827,-2.36813 -0.67085,-4.56638 -2.11935,-6.20833 z" />
      <path
         id="path372-7"
         style="display:inline;fill:#000000;fill-opacity:1;stroke:#000000;stroke-width:1.8;stroke-dasharray:none;stroke-opacity:1"
         d="m 161.10156,29.232422 1.45508,4.050781 c 0.77449,0.373436 1.54408,0.756932 2.30859,1.150391 -1.79983,-2.489566 -2.13314,-2.948385 -3.76367,-5.201172 z m 22.77238,61.259049 2.45614,9.004623 c 0.77195,1.875826 1.45756,3.786036 2.05469,5.724606 l 0.16992,0.47266 -0.0176,0.008 c 1.90706,6.25575 2.8798,12.75885 2.88672,19.29883 1e-4,36.68491 -29.73892,66.42393 -66.42383,66.42383 -36.68491,1e-4 -66.42393,-29.73892 -66.423828,-66.42383 0.05932,-11.50523 3.106062,-22.79776 8.841797,-32.771484 l -0.126953,-0.117188 -1.84375,-1.167969 C 59.461411,101.29981 56.2799,113.03828 56.216797,125 56.216392,162.98808 87.011919,193.78361 125,193.7832 c 37.98808,4.1e-4 68.78361,-30.79512 68.7832,-68.7832 -0.007,-14.11603 -1.80684,-22.94942 -9.90926,-34.508529 z"
         sodipodi:nodetypes="ccccccccccccccccccc" />
    </g>
    <circle
       style="fill:none;stroke:none;stroke-width:9.916"
       id="path899-3"
       cx="125"
       cy="125"
       r="102.65591" />
  </g>
</svg>
