<?xml version="1.0" encoding="UTF-8" standalone="no"?>
<!-- Created with Inkscape (http://www.inkscape.org/) -->

<svg
   width="250px"
   height="250px"
   viewBox="0 0 250 250"
   version="1.1"
   id="SVGRoot"
   sodipodi:docname="qcad.svg"
   inkscape:version="1.2 (dc2aeda, 2022-05-15)"
   xmlns:inkscape="http://www.inkscape.org/namespaces/inkscape"
   xmlns:sodipodi="http://sodipodi.sourceforge.net/DTD/sodipodi-0.dtd"
   xmlns="http://www.w3.org/2000/svg"
   xmlns:svg="http://www.w3.org/2000/svg">
  <sodipodi:namedview
     id="namedview784"
     pagecolor="#ffffff"
     bordercolor="#000000"
     borderopacity="0.25"
     inkscape:showpageshadow="2"
     inkscape:pageopacity="0.0"
     inkscape:pagecheckerboard="0"
     inkscape:deskcolor="#d1d1d1"
     inkscape:document-units="px"
     showgrid="false"
     inkscape:zoom="2.0366415"
     inkscape:cx="143.6188"
     inkscape:cy="161.78596"
     inkscape:window-width="1920"
     inkscape:window-height="1012"
     inkscape:window-x="0"
     inkscape:window-y="0"
     inkscape:window-maximized="1"
     inkscape:current-layer="layer2" />
  <defs
     id="defs779" />
  <g
     inkscape:label="Layer 1"
     inkscape:groupmode="layer"
     id="layer1">
    <g
       inkscape:groupmode="layer"
       id="layer2"
       inkscape:label="Layer 2"
       style="display:inline">
      <g
         id="path924"
         transform="matrix(0.92479669,0.53393161,-0.53393161,0.92479669,-10.555274,21.261531)">
        <path
           style="color:#000000;fill:#000000"
           d="m 207.29687,27.943359 -0.61914,0.44336 -24.9375,17.826172 22.13477,15.183593 3.79492,3.466797 18.44922,-6.472656 h 34.83984 c 7.16013,0 12.97071,-5.808464 12.97071,-12.96875 0,-7.160538 -5.81031,-12.972656 -12.97071,-12.972656 h -40.73437 z m 0.47071,3.275391 11.95898,4.167969 41.23242,0.002 c 5.5832,0 10.03321,4.450158 10.03321,10.033203 0,5.5833 -4.44975,10.03125 -10.03321,10.03125 h -35.34179 l -17.26172,6.056641 -2.65039,-2.421875 -18.8418,-12.923829 z"
           id="path930" />
      </g>
      <path
         id="path241-3-6"
         style="display:inline;fill:#000000;stroke:none;stroke-width:8.90261"
         d="M 143.43164 98.669922 A 58.892851 58.892851 0 0 0 141.75391 98.789062 L 125.83398 114.70898 A 46.465713 46.465713 0 0 1 143.43164 111.09375 A 46.465713 46.465713 0 0 1 189.89648 157.5625 A 46.465713 46.465713 0 0 1 187.62891 171.89648 L 198.47461 178.08008 A 58.892851 58.892851 0 0 0 202.32422 157.5625 A 58.892851 58.892851 0 0 0 143.43164 98.669922 z M 100.58203 139.96094 L 84.65625 155.88672 A 58.892851 58.892851 0 0 0 84.537109 157.5625 A 58.892851 58.892851 0 0 0 143.43164 216.45312 A 58.892851 58.892851 0 0 0 177.45117 205.47266 L 165.70117 198.24219 A 46.465713 46.465713 0 0 1 143.43164 204.02734 A 46.465713 46.465713 0 0 1 96.964844 157.5625 A 46.465713 46.465713 0 0 1 100.58203 139.96094 z " />
      <g
         id="path400"
         inkscape:transform-center-y="4.0887676"
         transform="matrix(0.17351197,-0.30053155,0.30053155,0.17351197,114.08402,126.75691)"
         inkscape:transform-center-x="0.0001309931"
         style="stroke:#000000">
        <g
           id="path919" />
      </g>
      <g
         id="g374"
         transform="translate(-38.172229,-33.467603)">
        <path
           id="rect1376-7"
           style="fill:#000000;fill-opacity:1;stroke:#000000;stroke-width:4.416;stroke-dasharray:none;stroke-opacity:1"
           d="m 110.51172,60.461576 c -2.78716,10e-7 -5.57523,1.067417 -7.71094,3.203125 L 55.832031,110.63541 c -4.27142,4.27141 -4.27142,11.14849 0,15.41992 l 45.787109,45.78711 c 0.36102,0.36102 0.74553,0.68048 1.14063,0.98047 l 0.32031,-0.32032 c -0.25344,-0.20789 -0.49947,-0.42915 -0.73633,-0.66601 L 55.837891,125.33072 c -3.874014,-3.87402 -3.874014,-10.11037 0,-13.98437 L 103.51172,63.670561 c 1.93701,-1.937009 4.46425,-2.906094 6.99219,-2.90625 2.52792,-1.57e-4 5.05713,0.969242 6.99414,2.90625 l 46.50586,46.505859 c 0.23686,0.23686 0.45811,0.48288 0.66601,0.73633 l 0.32031,-0.32031 c -0.29999,-0.3951 -0.61945,-0.77961 -0.98046,-1.14063 L 118.2207,63.664701 c -2.1357,-2.135707 -4.92183,-3.203125 -7.70898,-3.203125 z" />
        <path
           id="rect1376-7-56"
           style="fill:#000000;fill-opacity:1;stroke:#000000;stroke-width:4.416;stroke-dasharray:none;stroke-opacity:1"
           d="m 103.56533,185.31564 c -2.86058,2.86057 -2.86058,7.46623 0,10.32681 l 1.56375,1.56375 c 2.86058,2.86058 7.46624,2.86058 10.32682,0 l 73.91698,-73.91698 c 2.86059,-2.86058 2.86059,-7.46624 0,-10.32682 l -1.56375,-1.56375 c -2.86058,-2.86059 -7.46625,-2.86059 -10.32682,0 z m 0.004,0.47585 74.38864,-74.38864 c 2.59444,-2.59445 6.77185,-2.59485 9.36628,-4.2e-4 l 2.04508,2.04508 c 2.59444,2.59443 2.59402,6.77184 -4.2e-4,9.36628 l -74.38865,74.38863 c -2.59442,2.59444 -6.77141,2.59444 -9.36586,0 l -2.04507,-2.04507 c -2.59444,-2.59443 -2.59443,-6.77143 0,-9.36586 z"
           sodipodi:nodetypes="sscsccscsssssccsss" />
        <path
           id="rect1376-7-5"
           style="fill:#000000;fill-opacity:1;stroke:#000000;stroke-width:4.416;stroke-dasharray:none;stroke-opacity:1"
           d="m 156.20312,106.37369 c -2.78714,0 -5.57522,1.06937 -7.71093,3.20508 l -46.96875,46.96875 c -4.27143,4.27141 -4.27143,11.14849 0,15.41992 l 7.93359,7.93359 0.36524,-0.36328 -8.29297,-8.29492 c -3.874022,-3.87402 -3.874022,-10.11036 0,-13.98438 l 47.67382,-47.67382 c 3.87403,-3.87403 10.11233,-3.87597 13.98633,-0.002 l 8.29297,8.29492 0.36524,-0.36523 -7.9336,-7.93359 c -2.13571,-2.13571 -4.92378,-3.20508 -7.71094,-3.20508 z" />
      </g>
      <ellipse
         style="fill:#000000;stroke:#000000;stroke-width:5.1;stroke-linejoin:round"
         id="path540"
         cx="132.84297"
         cy="142.27882"
         rx="4.752007"
         ry="4.6028128" />
    </g>
  </g>
</svg>
